# xmcd
#
# Track frame offsets:
#	150
#	13260
#	24955
#	38450
#	56301
#	73073
#	97099
#	102339
#
# Disc length: 1675 seconds
# Revision: 0
# Processed by: cddbd v1.5.2PL0 Copyright (c) Steve Scherf et al.
# Submitted via: dBpowerAMP V12.0
#
DISCID=5e068908
DTITLE=the Wells - new death valley blues
DYEAR=2004
DGENRE=Folk-Rock
TTITLE0=railroad girl
TTITLE1=rose campbell
TTITLE2=pretty polly '03
TTITLE3=called up higher
TTITLE4=new death valley blues
TTITLE5=forsaken
TTITLE6=interlude
TTITLE7=poor wayfaring stranger
EXTD=
EXTT0=
EXTT1=
EXTT2=
EXTT3=
EXTT4=
EXTT5=
EXTT6=
EXTT7=
PLAYORDER=
